<svg xmlns="http://www.w3.org/2000/svg" width="64" height="64" viewBox="0 0 64 64" fill="none" aria-hidden="true">
  <!-- Five stars in one row — QS 5-Star -->
  <path fill="#5d2e91" d="M12 17.27L18.18 21l-1.64-7.03L22 9.24l-7.19-.61L12 2 9.19 8.63 2 9.24l5.46 4.73L5.82 21 12 17.27z" transform="translate(2 26) scale(0.38)"/>
  <path fill="#5d2e91" d="M12 17.27L18.18 21l-1.64-7.03L22 9.24l-7.19-.61L12 2 9.19 8.63 2 9.24l5.46 4.73L5.82 21 12 17.27z" transform="translate(14 26) scale(0.38)"/>
  <path fill="#5d2e91" d="M12 17.27L18.18 21l-1.64-7.03L22 9.24l-7.19-.61L12 2 9.19 8.63 2 9.24l5.46 4.73L5.82 21 12 17.27z" transform="translate(26 26) scale(0.38)"/>
  <path fill="#5d2e91" d="M12 17.27L18.18 21l-1.64-7.03L22 9.24l-7.19-.61L12 2 9.19 8.63 2 9.24l5.46 4.73L5.82 21 12 17.27z" transform="translate(38 26) scale(0.38)"/>
  <path fill="#5d2e91" d="M12 17.27L18.18 21l-1.64-7.03L22 9.24l-7.19-.61L12 2 9.19 8.63 2 9.24l5.46 4.73L5.82 21 12 17.27z" transform="translate(50 26) scale(0.38)"/>
</svg>
